<svg xmlns="http://www.w3.org/2000/svg" width="527" height="350" viewBox="0 0 527 350">
    <g fill="none" fill-rule="evenodd" stroke="#4A90E2" stroke-width=".68">
        <path d="M146.4 156.8L188.662 181.2 188.662 230 146.4 254.4 104.138 230 104.138 181.2z" opacity=".203" transform="matrix(-1 0 0 1 670.8 -24) scale(-1 1) rotate(30 0 -340.772)"/>
        <path d="M542.4 203.2L584.662 227.6 584.662 276.4 542.4 300.8 500.138 276.4 500.138 227.6z" opacity=".203" transform="matrix(-1 0 0 1 670.8 -24) scale(-1 1) rotate(30 0 -1772.264)"/>
        <path d="M225.6 203.2L267.862 227.6 267.862 276.4 225.6 300.8 183.338 276.4 183.338 227.6z" opacity=".6" transform="matrix(-1 0 0 1 670.8 -24) scale(-1 1) rotate(30 0 -589.95)"/>
        <path d="M384 203.2L426.262 227.6 426.262 276.4 384 300.8 341.738 276.4 341.738 227.6z" opacity=".203" transform="matrix(-1 0 0 1 670.8 -24) scale(-1 1) rotate(30 0 -1181.107)"/>
        <path d="M384 295L426.262 319.4 426.262 368.2 384 392.6 341.738 368.2 341.738 319.4z" opacity=".203" transform="matrix(-1 0 0 1 670.8 -24) scale(-1 1) rotate(30 0 -1089.307)"/>
        <path d="M146.4 251.2L188.662 275.6 188.662 324.4 146.4 348.8 104.138 324.4 104.138 275.6z" opacity=".203" transform="matrix(-1 0 0 1 670.8 -24) scale(-1 1) rotate(30 0 -246.372)"/>
        <path d="M304.8 156.8L347.062 181.2 347.062 230 304.8 254.4 262.538 230 262.538 181.2z" opacity=".203" transform="matrix(-1 0 0 1 670.8 -24) scale(-1 1) rotate(30 0 -931.929)"/>
        <path d="M225.6 110.4L267.862 134.8 267.862 183.6 225.6 208 183.338 183.6 183.338 134.8z" opacity=".203" transform="matrix(-1 0 0 1 670.8 -24) scale(-1 1) rotate(30 0 -682.75)"/>
        <path d="M225.6 18.4L267.862 42.8 267.862 91.6 225.6 116 183.338 91.6 183.338 42.8z" opacity=".203" transform="matrix(-1 0 0 1 670.8 -24) scale(-1 1) rotate(30 0 -774.75)"/>
        <path d="M304.8 249.6L347.062 274 347.062 322.8 304.8 347.2 262.538 322.8 262.538 274z" opacity=".203" transform="matrix(-1 0 0 1 670.8 -24) scale(-1 1) rotate(30 0 -839.129)"/>
        <path d="M463.2 249.6L505.462 274 505.462 322.8 463.2 347.2 420.938 322.8 420.938 274z" opacity=".2" transform="matrix(-1 0 0 1 670.8 -24) scale(-1 1) rotate(30 0 -1430.286)"/>
        <path d="M304.8 64L347.062 88.4 347.062 137.2 304.8 161.6 262.538 137.2 262.538 88.4z" opacity=".6" transform="matrix(-1 0 0 1 670.8 -24) scale(-1 1) rotate(30 0 -1024.729)"/>
        <path d="M621.6 249.6L663.862 274 663.862 322.8 621.6 347.2 579.338 322.8 579.338 274z" opacity=".603" transform="matrix(-1 0 0 1 670.8 -24) scale(-1 1) rotate(30 0 -2021.443)"/>
    </g>
</svg>
